<svg width="512" height="512" viewBox="0 0 512 512" fill="none" xmlns="http://www.w3.org/2000/svg">
<path d="M160.782 141.033C161.896 141.57 162.494 142.281 163.042 143.538C183.58 190.651 201.826 239.577 222.475 286.568C219.843 294.202 215.711 303.258 212.545 310.774C206.787 324.552 200.964 338.294 195.076 352L259.015 351.889C273.382 351.886 288.853 351.569 303.146 352.096C307.566 361.132 310.644 369.955 314.865 378.843C308.123 378.197 298.283 378.512 291.327 378.511L251.863 378.514C205.051 378.52 157.024 379.14 110.331 378.444C107.24 385.604 103.816 394.011 100.34 400.826C126.823 399.051 156.202 401.352 183.108 401.352L273.133 401.335C289.695 401.329 307.542 400.97 324.014 401.525C327.055 406.936 331.332 417.382 333.762 423.318C334.627 425.711 335.523 428.093 336.447 430.457C318.333 429.943 297.704 430.498 279.391 430.498L165.634 430.521C162.324 436.92 159.369 445.047 156.349 451.799C147.571 471.424 139.888 491.94 130.869 511.403C121.071 512.403 103.032 511.819 92.7712 511.929C61.8407 512.258 30.9902 511.085 0 511.518C7.97044 494.032 15.7071 475.349 23.4822 457.632L98.2542 285.849L141.31 186.363C146.008 175.423 157.249 151.341 160.782 141.033Z" fill="#3F4146"/>
<path d="M223.149 0.568676C226.26 -0.294943 242.029 0.075595 246.377 0.0981393L288.275 0.310289C290.306 0.927077 290.703 1.76179 291.84 4.19715C297.87 17.115 303.43 30.574 309.099 43.7098L340.868 116.752L460.991 393.606L491.659 464.638C496.527 476.245 501.521 487.789 506.647 499.252C508.326 503.05 510.229 508.102 512 511.64C502.432 511.27 489.807 511.224 480.259 511.646C466.941 511.605 451.114 512.148 438.034 511.345C419.2 468.147 400.58 422.613 382.283 378.999L280.822 139.391C270.545 115.409 260.627 90.2787 250.052 66.4939L248.397 63.4632C247.161 62.3937 225.118 5.5209 223.149 0.568676Z" fill="#3F4146"/>
<path d="M288.275 0.310181C290.306 0.926969 290.703 1.76168 291.84 4.19704C297.87 17.1149 303.43 30.5738 309.099 43.7096L340.868 116.752L460.991 393.606L491.659 464.638C496.527 476.245 501.521 487.789 506.647 499.252C508.327 503.05 510.229 508.102 512 511.64C502.432 511.27 489.807 511.223 480.259 511.645C476.606 502.246 471.09 490.806 467.017 481.378L432.878 402.762C389.099 302.078 345.772 201.135 302.901 99.9391C299.015 90.6936 293.292 78.0249 290.032 68.576C289.363 66.6348 289.467 51.9736 289.472 49.0873L289.576 16.5473C289.582 13.0228 290.059 5.36357 288.602 2.70566C288.681 1.3004 288.654 1.74666 288.275 0.310181Z" fill="#577091"/>
<path d="M223.149 0.568676C226.26 -0.294943 242.029 0.075595 246.377 0.0981393L288.275 0.310289C288.654 1.74676 288.681 1.30051 288.601 2.70577C285.42 9.19332 278.169 20.7614 274.231 27.2114C267.265 38.6223 257.918 56.1686 250.052 66.4939L248.397 63.4631C247.161 62.3937 225.118 5.5209 223.149 0.568676Z" fill="#6783A3"/>
<path d="M173.299 116.233C175.253 108.961 184.538 89.4197 187.916 81.6732C199.639 54.7865 210.869 27.0507 223.149 0.568726C225.119 5.52095 247.162 62.3938 248.397 63.4632C237.3 91.1129 234.965 79.8905 247.146 108.427L259.393 137.547L296.9 226.096L369.209 397.52C385.491 435.44 401.587 473.459 417.506 511.576C408.661 511.489 398.531 512.056 389.848 511.403C386.574 504.755 383.655 496.98 380.73 490.038L362.914 447.915L293.223 282.51L276.114 241.853C270.579 228.445 265.172 214.723 259.048 201.659C254.131 212.74 249.427 224.45 244.519 235.617C241.5 242.489 235.871 255.05 233.986 261.8C230.302 256.451 224.436 240.769 221.453 233.722C210.355 207.691 199.548 181.498 189.035 155.151C185.356 146.134 175.378 124.414 173.299 116.233Z" fill="#3F4146"/>
</svg>
